<?xml version="1.0" encoding="utf-8"?>
<svg version="1.1" id="Layer_1" x="0px" y="0px" viewBox="0 0 1200 1200" style="enable-background:new 0 0 1200 1200;" xmlns="http://www.w3.org/2000/svg">
  <rect x="-0.496" y="-2" style="" width="1209" height="1209"/>
  <g transform="matrix(1.302408, 0, 0, 1.387986, -170.203997, -88.354501)" style="">
    <linearGradient id="SVGID_1_" gradientUnits="userSpaceOnUse" x1="661.7833" y1="557.8982" x2="851.1613" y2="557.8982">
      <stop offset="0" style="stop-color:#EC1C24"/>
      <stop offset="1" style="stop-color:#BE1E2D"/>
    </linearGradient>
    <path style="fill:url(#SVGID_1_);" d="M661.783,579.97c0,0,47.345-70.776,100.456-44.909 c53.111,25.865,68.813,34.951,88.922,31.045c0,0-38.292,40.175-106.087,7.533C720.593,527.814,671.002,569.872,661.783,579.97z"/>
    <linearGradient id="SVGID_00000071531646687702592760000006366343804103958673_" gradientUnits="userSpaceOnUse" x1="330.182" y1="557.8982" x2="519.5599" y2="557.8982">
      <stop offset="0" style="stop-color:#EC1C24"/>
      <stop offset="1" style="stop-color:#BE1E2D"/>
    </linearGradient>
    <path style="fill:url(#SVGID_00000071531646687702592760000006366343804103958673_);" d="M519.56,579.97 c0,0-47.345-70.776-100.455-44.909c-53.111,25.865-68.813,34.951-88.922,31.045c0,0,38.292,40.175,106.087,7.533 C460.75,527.814,510.341,569.872,519.56,579.97z"/>
    <linearGradient id="SVGID_00000118391886654669043680000014367206176574596998_" gradientUnits="userSpaceOnUse" x1="741.2394" y1="418.9838" x2="912.0742" y2="418.9838">
      <stop offset="0" style="stop-color:#EC1C24"/>
      <stop offset="1" style="stop-color:#BE1E2D"/>
    </linearGradient>
    <path style="fill:url(#SVGID_00000118391886654669043680000014367206176574596998_);" d="M792.782,434.91 c-18.832,65.284-54.86,83.017-51.297,82.379c213.252-20.234,166.172-196.627,166.172-196.627S893.835,402.946,792.782,434.91z"/>
    <linearGradient id="SVGID_00000132774379123963277910000009788246906049543598_" gradientUnits="userSpaceOnUse" x1="269.269" y1="418.9838" x2="440.104" y2="418.9838">
      <stop offset="0" style="stop-color:#EC1C24"/>
      <stop offset="1" style="stop-color:#BE1E2D"/>
    </linearGradient>
    <path style="fill:url(#SVGID_00000132774379123963277910000009788246906049543598_);" d="M388.561,434.91 c18.832,65.284,54.86,83.017,51.297,82.379c-213.252-20.234-166.172-196.627-166.172-196.627S287.508,402.946,388.561,434.91z"/>
    <linearGradient id="SVGID_00000068656183453492973520000014101079946433265544_" gradientUnits="userSpaceOnUse" x1="777.7509" y1="528.3173" x2="930.9225" y2="528.3173">
      <stop offset="0" style="stop-color:#EC1C24"/>
      <stop offset="1" style="stop-color:#BE1E2D"/>
    </linearGradient>
    <path style="fill:url(#SVGID_00000068656183453492973520000014101079946433265544_);" d="M834.513,509.178 c-16.771,7.858-35.711,13.874-56.762,18.038c84.104,52.554,153.172-13.84,153.172-13.84 C902.603,533.179,849.655,516.449,834.513,509.178z"/>
    <linearGradient id="SVGID_00000147218246715002358880000007539002777421089170_" gradientUnits="userSpaceOnUse" x1="261.7591" y1="528.3173" x2="403.5923" y2="528.3173">
      <stop offset="0" style="stop-color:#EC1C24"/>
      <stop offset="1" style="stop-color:#BE1E2D"/>
    </linearGradient>
    <path style="fill:url(#SVGID_00000147218246715002358880000007539002777421089170_);" d="M346.83,509.178 c16.771,7.858,35.711,13.874,56.762,18.038c-84.104,52.554-141.833-13.84-141.833-13.84 C290.079,533.179,331.688,516.449,346.83,509.178z"/>
    <linearGradient id="SVGID_00000052068285755614919680000009802694740820624774_" gradientUnits="userSpaceOnUse" x1="612.9859" y1="545.7913" x2="783.3664" y2="545.7913">
      <stop offset="0" style="stop-color:#EC1C24"/>
      <stop offset="1" style="stop-color:#BE1E2D"/>
    </linearGradient>
    <path style="fill:url(#SVGID_00000052068285755614919680000009802694740820624774_);" d="M783.366,387.83 c0,0,0.831,90.756-86.144,141.963C610.25,581,617.14,689.998,613.07,703.753c0,0-5.589-172.177,74.202-217.15 C687.272,486.603,767.987,442.285,783.366,387.83z"/>
    <linearGradient id="SVGID_00000175285770139589678370000013332691396822463384_" gradientUnits="userSpaceOnUse" x1="397.9768" y1="545.7913" x2="568.3572" y2="545.7913">
      <stop offset="0" style="stop-color:#EC1C24"/>
      <stop offset="1" style="stop-color:#BE1E2D"/>
    </linearGradient>
    <path style="fill:url(#SVGID_00000175285770139589678370000013332691396822463384_);" d="M397.977,387.83 c0,0-0.831,90.756,86.144,141.963c86.972,51.207,80.083,160.205,84.152,173.96c0,0,5.589-172.177-74.202-217.15 C494.071,486.603,413.357,442.285,397.977,387.83z"/>
    <linearGradient id="SVGID_00000165227464621726650080000006335314140520233145_" gradientUnits="userSpaceOnUse" x1="853.0283" y1="467.7835" x2="963.4588" y2="467.7835">
      <stop offset="0" style="stop-color:#EC1C24"/>
      <stop offset="1" style="stop-color:#BE1E2D"/>
    </linearGradient>
    <path style="fill:url(#SVGID_00000165227464621726650080000006335314140520233145_);" d="M898.525,457.072 c-11.838,16.759-27.052,30.804-45.497,42.145c17.218,3.986,88.627,13.381,110.431-65.435 C938.21,464.832,907.327,460.168,898.525,457.072z"/>
    <linearGradient id="SVGID_00000137104771052959423030000013765038793332781201_" gradientUnits="userSpaceOnUse" x1="224.2009" y1="467.7835" x2="328.3152" y2="467.7835">
      <stop offset="0" style="stop-color:#EC1C24"/>
      <stop offset="1" style="stop-color:#BE1E2D"/>
    </linearGradient>
    <path style="fill:url(#SVGID_00000137104771052959423030000013765038793332781201_);" d="M282.818,457.072 c11.838,16.759,27.052,30.804,45.497,42.145c-17.219,3.986-82.311,13.381-104.114-65.435 C249.449,464.832,274.016,460.168,282.818,457.072z"/>
    <g>
      <linearGradient id="SVGID_00000082326662825983034290000017283317373046778554_" gradientUnits="userSpaceOnUse" x1="521.4142" y1="546.5455" x2="589.8371" y2="546.5455">
        <stop offset="0" style="stop-color:#EC1C24"/>
        <stop offset="1" style="stop-color:#BE1E2D"/>
      </linearGradient>
      <path style="fill:url(#SVGID_00000082326662825983034290000017283317373046778554_);" d="M521.414,481.575 c0,0,60.489,51.474,62.459,251.721l5.964-373.501C589.837,359.795,568.808,452.699,521.414,481.575z"/>
      <linearGradient id="SVGID_00000070100662338611616830000015219897037423786898_" gradientUnits="userSpaceOnUse" x1="589.8371" y1="546.5455" x2="658.26" y2="546.5455">
        <stop offset="0" style="stop-color:#EC1C24"/>
        <stop offset="1" style="stop-color:#BE1E2D"/>
      </linearGradient>
      <path style="fill:url(#SVGID_00000070100662338611616830000015219897037423786898_);" d="M589.837,359.795l5.963,373.501 c0.54-189.262,62.46-251.721,62.46-251.721C610.866,452.699,589.837,359.795,589.837,359.795z"/>
    </g>
  </g>
</svg>